<svg width="1024" height="1024" viewBox="0 0 1024 1024" xmlns="http://www.w3.org/2000/svg"><g fill="none" stroke="#50C878" stroke-linecap="round" stroke-linejoin="round" stroke-width="64" color="#50C878"><path d="m682.67 426.67l52.27 45.12c21.97 19.04 32.96 28.48 32.96 40.21s-11.04 21.28-32.96 40.21l-52.27 45.12m-341.34-170.66l-52.27 45.12c-21.97 19.04-32.96 28.48-32.96 40.21s11.04 21.28 32.96 40.21l52.27 45.12m213.34-213.34l-85.44 256"/><path d="M106.67 512c0-191.04 0-286.56 59.31-345.92S321.07 106.67 512 106.67c191.04 0 286.56 0 345.92 59.31s59.31 154.88 59.31 345.92c0 191.04 0 286.56-59.31 345.92s-154.88 59.41-345.92 59.41c-191.04 0-286.56 0-345.92-59.31s-59.41-154.88-59.41-345.92"/></g></svg>